<svg id="Layer_1" data-name="Layer 1" xmlns="http://www.w3.org/2000/svg" width="100" height="100" viewBox="0 0 768.62 603.08"><defs><style>.cls-1{opacity:0.1;}.cls-2{fill:#c0b9d6;}.cls-3{fill:#cfcdd3;}.cls-4{fill:#6d0d5b;}.cls-5{fill:#eacdb0;}.cls-6{fill:#ffe0bd;}.cls-7{fill:#ccc;}.cls-8{fill:#b7b7b7;}.cls-9{fill:#33284f;stroke:#cfcdd3;stroke-miterlimit:10;}</style></defs><title>lady-macbook</title><g class="cls-1"><path class="cls-2" d="M959.49,691.5c1.51-8.64,3.84-22.29,6.42-39.12,6.87-45,8-54.58,12.14-80,12.69-77.23,43.84-83.27,40.69-117.06-4.2-45.1-57.91-61.33-135.26-114.86C759.73,254.88,771.83,212.39,711.15,187.14c-114.78-47.74-441.54,114.54-457.55,355-4.13,62,13.89,114.12,29.78,148.33Z" transform="translate(-251.82 -177.19)"/><path class="cls-3" d="M960.94,691.9c5.22-29.84,9.55-59.82,14-89.79,3.9-26.21,7.53-52.66,17.51-77.39a216.05,216.05,0,0,1,14.68-28.9c3.89-6.6,8-13.19,10.61-20.42,5.85-16.11,1.8-34.36-8.05-48-14-19.48-36.67-32.2-56.72-44.5-31.94-19.6-63.82-39.12-93.74-61.75-23.38-17.69-45.54-37.05-65.34-58.71C781.7,249.1,770.8,234.72,759,221.06c-19.92-23.08-45.31-38.67-75.86-42.53-36-4.54-73.36,3.06-107.65,13.71-43.8,13.6-85.55,34-124.14,58.63-41.78,26.7-80.37,58.9-112.86,96.42C306.33,384.44,280,427.2,265.08,474.2,246.37,533,247.77,595.81,267.3,654.25a359.78,359.78,0,0,0,14.78,37,1.5,1.5,0,0,0,1.3.74l263.26.39,264.26.39,148.59.22a1.5,1.5,0,0,0,0-3l-315.12-.47-315.12-.46L289.36,689c-1,0-3.2.3-4,0-1.57-.61-1.07-.66-1.93-1.94a31.19,31.19,0,0,1-2.23-5q-2.91-6.66-5.54-13.43a319.11,319.11,0,0,1-16.44-57.4A278.83,278.83,0,0,1,262.62,494c14.87-60.43,49-114.53,91.46-159.42,42-44.43,92.46-81,147-108.6,45.7-23.16,96.31-41.83,147.84-45.19,18.94-1.24,38.57-.37,56.65,5.85,18.36,6.32,34.13,17.56,47.15,31.81,15.16,16.59,28.35,34.84,43.81,51.2,27.16,28.74,58.48,53.31,91.11,75.52,18.78,12.78,38.15,24.64,57.54,36.47,14.82,9,29.92,18,43.53,28.8,18.49,14.72,34.5,36.82,27,61.64-2.81,9.32-8.47,17.56-13.3,25.91a199.15,199.15,0,0,0-17.66,39.36c-9.62,30.27-12.46,62.82-17.16,94.14-3,19.91-6.06,39.81-9.53,59.64C957.71,693,960.6,693.8,960.94,691.9Z" transform="translate(-251.82 -177.19)"/></g><path d="M760.16,361.4c-20.31-45.27-91.26-79-145.31-61.63-35.23,11.31-68.44,42.59-73.52,78-5.8,40.48,28.86,60.13,15.12,101.88-7.21,21.89-26,33.55-33.31,38.22C465.22,555.09,402.54,502.69,366,534c-23.44,20.08-25.48,65.49-9,93,30,50.07,120,38.56,137.7,36.27C653.13,642.8,801.39,453.33,760.16,361.4Z" transform="translate(-251.82 -177.19)"/><path d="M760.48,361.21c-18.6-40.59-67.81-65-110.89-66.38-24.85-.82-48.56,7.27-68.52,22-19.58,14.44-36.2,35.57-40,60.15-3.48,22.55,7.31,40.89,14.26,61.45,8.46,25,1.87,50.92-18,68.57a96.86,96.86,0,0,1-66.2,24.49c-23.46-.29-46.12-7.48-69.49-8.3-19.76-.69-37.1,6.53-46.95,24.37-10.55,19.13-11.26,43.73-4.8,64.28,12.43,39.59,54,52.1,91.48,54.2a272.27,272.27,0,0,0,99.72-13.1c44.13-14.59,84.47-39.87,119.25-70.45,33.13-29.13,62.37-63.8,83.06-102.9,15.62-29.5,28.32-64.59,22.93-98.46a80.55,80.55,0,0,0-5.85-19.92c-.19-.44-.84-.06-.65.38,13.18,29.82,5.8,64.6-5.88,93.63-15.61,38.82-41,73.67-69.94,103.64-31.57,32.72-68.74,60.65-109.94,80.06a278.69,278.69,0,0,1-104.35,26.33c-34.85,1.86-78.38-.67-104.09-27.57-15.77-16.49-21-41.15-18.39-63.32,2.59-22,14.45-44.1,37.55-49.15,21.12-4.63,43.7,2.47,64.62,5.28,23.31,3.13,47.12,2.53,68.25-8.93,16.55-9,32.09-22.18,38.64-40.33a61,61,0,0,0,2.83-31.33c-1.78-10.12-6-19.53-9.89-29-4.1-10-7.64-20.26-8.13-31.16-.59-12.91,3-25.68,9-37,12.66-23.64,35.57-42,60.58-51.16,44.46-16.35,99.12,1.35,131.34,34.52a91.34,91.34,0,0,1,17.75,25.48C760,362,760.68,361.65,760.48,361.21Z" transform="translate(-251.82 -177.19)"/><path class="cls-4" d="M743.19,700.23l65.1-1c-1.14-19-6.32-78-38.92-130.73-31-50.21-68.32-64.62-81.37-68.76l-69.71,1c-13,4.14-50.34,18.55-81.38,68.76C504.32,622.22,499.13,681.21,498,700.23h83.72" transform="translate(-251.82 -177.19)"/><path class="cls-5" d="M687.5,480.5c-.93,8.58-4.14,26.06-17.5,38.5-3.63,3.38-8.9,8.15-16,8-1.54,0-7.21-.38-16-9-10.11-9.92-15.23-21.85-17.87-31.56A56.68,56.68,0,0,0,651,495,57.51,57.51,0,0,0,687.5,480.5Z" transform="translate(-251.82 -177.19)"/><path class="cls-6" d="M587.5,437.5c-.9-17.65,5.87-41.37,22.5-49.5,15.5-7.58,25.54,5.19,45-1,25.59-8.14,28-36.48,39.5-35.5,16.13,1.37,38.92,58.92,16,102.53-10.18,19.38-34.75,45.78-67,42.47C613.86,493.45,589,467,587.5,437.5Z" transform="translate(-251.82 -177.19)"/><path class="cls-7" d="M575.65,695.42q-2.16-34.7-2.17-34.72C571,623.06,569,608.36,569,588.84a6.84,6.84,0,0,1,6.84-6.84H734.16a6.84,6.84,0,0,1,6.84,6.84L734.16,701H576" transform="translate(-251.82 -177.19)"/><circle class="cls-8" cx="403.68" cy="471.31" r="10.5"/><path class="cls-9" d="M959.5,692.5C905,722.72,783,780.8,618,779.75A697.71,697.71,0,0,1,283.5,691.5" transform="translate(-251.82 -177.19)"/></svg>