<svg xmlns="http://www.w3.org/2000/svg" viewBox="0 0 198.86 198.86"><defs><style>.cls-1,.cls-4{fill:#86562c;}.cls-1{opacity:0.5;}.cls-2{fill:#d1d3d4;}.cls-3,.cls-5,.cls-6,.cls-7,.cls-8{fill:#fff;}.cls-5,.cls-6,.cls-7,.cls-8{stroke:#fff;stroke-miterlimit:10;stroke-width:0.25px;}.cls-6{opacity:0.1;}.cls-7{opacity:0.05;}.cls-8{opacity:0.03;}</style></defs><title>Asset 2</title><g id="Layer_2" data-name="Layer 2"><g id="Layer_12" data-name="Layer 12"><circle cx="99.43" cy="99.43" r="99.43"/><ellipse class="cls-1" cx="96.28" cy="99.35" rx="56.19" ry="56.94"/><path class="cls-2" d="M156.8,99.57a47.38,47.38,0,0,0,18.6-10.79,46.78,46.78,0,0,0,8.53-10.91l-28.26,8.95Q156.24,93.2,156.8,99.57Z"/><path class="cls-3" d="M180.54,68.51a12.53,12.53,0,0,0-8.38-4l-20.61,6.58a61.52,61.52,0,1,0,6.75,24.4,62.74,62.74,0,0,0-1.05-8.06l26.39-9.24A12.71,12.71,0,0,0,180.54,68.51Z"/><ellipse class="cls-4" cx="96.31" cy="99.4" rx="52.99" ry="53.7"/><path class="cls-5" d="M100.55,74.11c.51-.34,7.53,5.48,8.88,14.34.87,5.67-.27,14.73-7.43,18.63-8.26,4.49-17.34-1.77-17.8-2.1-7.83-5.58-9.54-15.83-8.78-16.21s2.94,7.94,11,11.43c1.71.75,7.66,3.33,12.77.08,4.85-3.08,5.28-9,5.33-10.61v-.31C104.59,80.17,100,74.44,100.55,74.11Z"/><path class="cls-5" d="M107.69,71.27c.87-.56,12.55,8,13.55,21.88.14,2,.94,16.62-10.87,24.65-9.34,6.36-20.74,4.63-27.8.67C69.52,111.15,68,94.35,69.2,93.75s4.47,12.11,16.71,17.42c2.62,1.14,11.71,5.07,19.55.08,7.43-4.73,8.11-13.78,8.18-16.22,0-.13,0-.28,0-.47C113.86,80.52,106.9,71.79,107.69,71.27Z"/><path class="cls-5" d="M114.71,64.69c1.66-1,23.31,16.2,21.29,39.65-1,11.52-7.67,24.13-20,30.63-15,7.89-31.57,3.24-41.61-4C56,117.74,55.22,92.63,56.81,92S61.76,111.59,79,121.55c2.2,1.27,18.33,10.24,32.05,2.47,10.25-5.8,12.94-17.42,13.47-19.72C129.31,83.64,113.12,65.68,114.71,64.69Z"/><path class="cls-3" d="M88.18,84C85,81.11,81.65,80.41,80,81.85A4.24,4.24,0,0,0,78.88,85c.07,2.89,2.49,6.11,6.08,8L96.49,98l.88-10.48c.32-3.78-.67-9.8-4.11-11.27a4.1,4.1,0,0,0-3.63.19C87.77,77.56,87,80.63,88.18,84Z"/><path class="cls-3" d="M79.32,69.49c-2.26-1.86-4.87-2.13-6.25-1A3.35,3.35,0,0,0,72,70.85c-.14,2.07,1.53,4.21,4.21,5.35L84.88,79l1.4-7.57c.94-3.88-.43-7.11-2.47-7.81a4.07,4.07,0,0,0-3.54.81A3.82,3.82,0,0,0,79.32,69.49Z"/><path class="cls-6" d="M118.29,56c1.5-1.32,18.69,8.62,25.06,26.49,6.56,18.4,2.11,46.47-20.07,60.52a50.62,50.62,0,0,1-55.23-1.11C42.47,124,45.32,86.44,48.29,85.54s7,31.84,30.49,41.42c11,4.47,24.52,3.27,35.15-3.3,13.38-8.27,19.36-23.37,18.92-35.67C132.17,69.37,116.78,57.32,118.29,56Z"/><path class="cls-7" d="M109.05,70.24c.94-.61,13,7.76,13.63,22,.08,2.06.44,17-12.33,25.64-10.11,6.82-22.13,5.43-29.48,1.6-13.59-7.07-14.67-24.24-13.36-24.9s4.34,12.26,17.13,17.3c2.74,1.08,12.24,4.81,20.71-.56,8-5.09,9.05-14.39,9.21-16.9q0-.2,0-.48C115.27,79.52,108.19,70.79,109.05,70.24Z"/><path class="cls-7" d="M102.55,74.65c.57-.37,7.86,5.19,8.81,14.19.61,5.77-1.15,15.13-9.16,19.55-9.23,5.09-18.73-.81-19.21-1.12C74.8,102,73.55,91.59,74.4,91.16s2.73,8,11.22,11.08c1.82.67,8.13,3,13.87-.66,5.45-3.45,6.26-9.55,6.41-11.2,0-.08,0-.19,0-.31C106.58,80.63,102,75,102.55,74.65Z"/><path class="cls-8" d="M58.63,83.85c-3.11,0-6.3-3.16-7.19-6.36C49.08,69,62.42,58,70.86,52.87c3.7-2.22,24.64-14.7,37.78-5.24C116.08,53,119.18,64.06,116.23,67c-3.36,3.34-12.25-6.15-24.17-2.61-4.54,1.35-4,2.93-13.08,6.75C72,74,70.31,73.7,66.85,76.41,62.14,80.09,61.64,83.87,58.63,83.85Z"/></g></g></svg>