<svg xmlns="http://www.w3.org/2000/svg" viewBox="0 0 190.84 190.84"><defs><style>.cls-1{fill:#f1f2f2;}.cls-1,.cls-4{stroke:#fff;stroke-miterlimit:10;stroke-width:0.25px;}.cls-2,.cls-4{fill:#fff;}.cls-3{fill:#563521;}.cls-5{fill:#d1d3d4;}</style></defs><title>Asset 7</title><g id="Layer_2" data-name="Layer 2"><g id="coffee"><circle class="cls-1" cx="95.42" cy="95.42" r="95.29"/><path class="cls-2" d="M178,65.09a12.47,12.47,0,0,0-8.38-3.94L149,67.72a61.52,61.52,0,1,0,6.75,24.4,60.66,60.66,0,0,0-1.06-8.05l26.39-9.25A12.65,12.65,0,0,0,178,65.09Z"/><ellipse class="cls-3" cx="94.3" cy="95.42" rx="51.06" ry="51.74"/><path class="cls-4" d="M88.08,87.19c-8.28-7.63-17.23-9.46-21.57-5.66-2.73,2.38-2.93,6.43-3,7.92-.34,12.46,14.66,20.9,16,21.65l30.43,13,2.16-25.53c1.56-16-2.69-28.72-10.68-31.86-.38-.15-5.43-2-9.59.5C87,70.2,85.07,78.3,88.08,87.19Z"/><path class="cls-5" d="M155.47,95.63a47.38,47.38,0,0,0,18.61-10.8,46.7,46.7,0,0,0,8.52-10.91l-28.26,9Q154.91,89.26,155.47,95.63Z"/></g></g></svg>