<svg xmlns="http://www.w3.org/2000/svg" viewBox="0 0 198.86 198.86"><defs><style>.cls-1{fill:#d1d3d4;}.cls-2,.cls-4{fill:#fff;}.cls-3{fill:#86562c;}.cls-4{stroke:#fff;stroke-miterlimit:10;stroke-width:0.25px;}</style></defs><title>Asset 3</title><g id="Layer_2" data-name="Layer 2"><g id="Layer_11" data-name="Layer 11"><circle cx="99.43" cy="99.43" r="99.43"/><path class="cls-1" d="M159.27,98.73a40.31,40.31,0,0,0,18.61-10.8,39.15,39.15,0,0,0,7-10l-26.74,8Q158.71,92.36,159.27,98.73Z"/><path class="cls-2" d="M181.8,68.2a12.53,12.53,0,0,0-8.38-4l-20.61,6.58a61.52,61.52,0,1,0,6.75,24.4,62.74,62.74,0,0,0-1.05-8.06l26.38-9.24A12.64,12.64,0,0,0,181.8,68.2Z"/><ellipse class="cls-3" cx="98.1" cy="98.53" rx="51.06" ry="51.74"/><path class="cls-4" d="M91.88,90.29c-8.28-7.62-17.23-9.46-21.57-5.66-2.73,2.39-2.93,6.44-3,7.93C67,105,82,113.46,83.38,114.21l30.44,13L116,101.66c1.56-16-2.69-28.71-10.68-31.85-.38-.16-5.43-2-9.59.49C90.8,73.31,88.87,81.41,91.88,90.29Z"/></g></g></svg>