<svg xmlns="http://www.w3.org/2000/svg" viewBox="0 0 190.84 190.84"><defs><style>.cls-1{fill:#f1f2f2;}.cls-1,.cls-6,.cls-7,.cls-8,.cls-9{stroke:#fff;stroke-miterlimit:10;stroke-width:0.25px;}.cls-2,.cls-5{fill:#86562c;}.cls-2{opacity:0.5;}.cls-3{fill:#d1d3d4;}.cls-4,.cls-6,.cls-7,.cls-8,.cls-9{fill:#fff;}.cls-7{opacity:0.1;}.cls-8{opacity:0.05;}.cls-9{opacity:0.03;}</style></defs><title>Asset 4</title><g id="Layer_2" data-name="Layer 2"><g id="Shape"><circle class="cls-1" cx="95.42" cy="95.42" r="95.29"/><ellipse class="cls-2" cx="95.25" cy="94.26" rx="56.19" ry="56.94"/><path class="cls-3" d="M155.77,94.48a47.3,47.3,0,0,0,18.6-10.8,46.58,46.58,0,0,0,8.53-10.91l-28.26,9Q155.2,88.11,155.77,94.48Z"/><path class="cls-4" d="M179.51,63.42a12.48,12.48,0,0,0-8.38-4l-20.61,6.58a61.52,61.52,0,1,0,6.75,24.4,62.51,62.51,0,0,0-1.05-8.06l26.38-9.24A12.64,12.64,0,0,0,179.51,63.42Z"/><ellipse class="cls-5" cx="95.28" cy="94.31" rx="52.99" ry="53.7"/><path class="cls-6" d="M99.52,69c.51-.33,7.53,5.49,8.88,14.34.87,5.67-.27,14.74-7.44,18.64-8.25,4.49-17.33-1.77-17.79-2.1-7.83-5.59-9.54-15.83-8.78-16.21s2.94,7.94,10.94,11.43c1.72.75,7.67,3.33,12.78.08,4.85-3.09,5.28-9,5.33-10.61v-.31C103.56,75.08,99,69.35,99.52,69Z"/><path class="cls-6" d="M106.66,66.18c.87-.57,12.55,8,13.55,21.88.14,2,.94,16.62-10.87,24.65-9.34,6.36-20.74,4.63-27.8.67C68.49,106.06,67,89.26,68.17,88.65s4.47,12.12,16.71,17.43c2.62,1.13,11.71,5.06,19.55.08,7.43-4.73,8.1-13.78,8.18-16.22,0-.13,0-.29,0-.47C112.83,75.43,105.87,66.7,106.66,66.18Z"/><path class="cls-6" d="M113.68,59.6c1.66-1,23.31,16.2,21.29,39.64-1,11.53-7.67,24.14-20,30.63-15,7.9-31.57,3.24-41.61-4-18.41-13.25-19.19-38.36-17.6-39S60.73,106.5,78,116.45c2.2,1.27,18.32,10.25,32.05,2.48,10.25-5.8,12.93-17.42,13.47-19.72C128.28,78.55,112.09,60.58,113.68,59.6Z"/><path class="cls-4" d="M87.15,78.9C84,76,80.62,75.32,79,76.76a4.23,4.23,0,0,0-1.12,3.17c.07,2.89,2.49,6.11,6.07,8l11.54,4.92.88-10.47c.32-3.79-.67-9.8-4.11-11.27a4.07,4.07,0,0,0-3.63.19C86.74,72.47,86,75.54,87.15,78.9Z"/><path class="cls-4" d="M78.29,64.4c-2.26-1.86-4.87-2.14-6.26-1a3.44,3.44,0,0,0-1.09,2.34c-.13,2.08,1.54,4.22,4.22,5.36l8.69,2.76,1.4-7.58c.94-3.88-.43-7.1-2.47-7.8a4,4,0,0,0-3.55.81A3.82,3.82,0,0,0,78.29,64.4Z"/><path class="cls-7" d="M117.26,50.9c1.5-1.32,18.69,8.62,25.06,26.49,6.56,18.4,2.1,46.47-20.07,60.52A50.62,50.62,0,0,1,67,136.8C41.44,118.89,44.28,81.35,47.26,80.44s7,31.85,30.49,41.43c11,4.47,24.52,3.27,35.15-3.3,13.38-8.27,19.36-23.37,18.91-35.67C131.14,64.28,115.75,52.23,117.26,50.9Z"/><path class="cls-8" d="M108,65.15c.95-.61,13,7.76,13.64,22,.08,2.06.44,17-12.33,25.64-10.11,6.82-22.13,5.42-29.48,1.6C66.25,107.3,65.17,90.12,66.48,89.46s4.34,12.27,17.13,17.31c2.74,1.08,12.24,4.81,20.71-.56,8-5.09,9.05-14.4,9.21-16.9q0-.19,0-.48C114.24,74.42,107.16,65.7,108,65.15Z"/><path class="cls-8" d="M101.52,69.56c.57-.38,7.86,5.19,8.81,14.19.61,5.77-1.15,15.13-9.16,19.54-9.24,5.1-18.74-.8-19.22-1.11-8.18-5.27-9.43-15.68-8.58-16.11s2.73,8,11.22,11.08c1.82.67,8.13,3,13.87-.66,5.45-3.45,6.26-9.55,6.41-11.2,0-.08,0-.19,0-.31C105.55,75.54,100.94,69.93,101.52,69.56Z"/><path class="cls-9" d="M57.6,78.76c-3.12,0-6.31-3.16-7.19-6.36-2.37-8.5,11-19.53,19.42-24.62,3.7-2.22,24.64-14.7,37.78-5.24C115,47.89,118.15,59,115.2,61.9,111.84,65.24,103,55.75,91,59.29,86.49,60.64,87.08,62.22,78,66c-7,2.91-8.67,2.57-12.13,5.28C61.11,75,60.61,78.78,57.6,78.76Z"/></g></g></svg>