<svg xmlns="http://www.w3.org/2000/svg" viewBox="0 0 269.67 278"><defs><style>.cls-1,.cls-3{fill:#ffce32;}.cls-2{opacity:0.05;}.cls-3,.cls-4{stroke:#000;stroke-width:3px;}.cls-3,.cls-4,.cls-5,.cls-6{stroke-miterlimit:10;}.cls-4,.cls-6{fill:none;}.cls-5{fill:#e7f1ff;}.cls-5,.cls-6{stroke:#fff;stroke-width:2.5px;}</style></defs><title>Asset 19</title><g id="Layer_2" data-name="Layer 2"><g id="Shopping-cart"><rect class="cls-1" y="54.52" width="256.43" height="44.94" rx="6.09"/><path d="M242.91,228.87c-9.53,17.08-42.32,11.39-114.69,7.19-73-4.24-100.25,10.73-111.91-7.19-8.8-13.52,3-23.79.47-65.9-2.47-41.57-15.45-50-8.39-64.71C19.68,74.82,63.3,74.82,125.82,75.49c59.2.64,122.36,1.32,130.47,27.06,5.67,18-21.58,29.07-23.69,66.41C230.73,202,250.92,214.5,242.91,228.87Z"/><path class="cls-2" d="M246.68,222.11c14.52,5.72,23,12.62,23,20C269.67,262,209.39,278,135,278S.38,262,.38,242.15c0-7.23,8-14,21.85-19.58"/><line class="cls-3" x1="218.77" y1="67.7" x2="246.26" y2="67.7"/><line class="cls-3" x1="20.24" y1="67.7" x2="47.73" y2="67.7"/><polyline class="cls-4" points="31.44 67.43 48.35 14.38 208.65 14.38 232 67.43"/><rect x="99.65" width="63.12" height="25.16" rx="8.32"/><line class="cls-5" x1="109.45" y1="125.82" x2="92.7" y2="144.99"/><line class="cls-5" x1="92.7" y1="125.82" x2="109.45" y2="144.99"/><line class="cls-5" x1="171.56" y1="125.82" x2="154.81" y2="144.99"/><line class="cls-5" x1="154.81" y1="125.82" x2="171.56" y2="144.99"/><path class="cls-6" d="M110.52,192.32c1.12-1.27,9.47-10.42,23.2-10.18a31,31,0,0,1,22.11,10.18"/></g></g></svg>