<svg xmlns="http://www.w3.org/2000/svg" viewBox="0 0 254.68 188.42"><defs><style>.cls-1{opacity:0.05;}.cls-2{fill:#ffce32;}.cls-3{fill:#e7f1ff;}.cls-3,.cls-4{stroke:#fff;stroke-miterlimit:10;stroke-width:2.5px;}.cls-4{fill:none;}</style></defs><title>Asset 17</title><g id="Layer_2" data-name="Layer 2"><g id="Shopping-cart"><path class="cls-1" d="M232.93,115.77c13.73,7.44,21.75,16.4,21.75,26.05,0,25.74-57,46.6-127.34,46.6S0,167.56,0,141.82c0-9.39,7.6-18.13,20.66-25.45"/><path class="cls-2" d="M238.14,118.42h-218c-6,0-10.9-5.82-10.9-13V13c0-7.18,4.88-13,10.9-13h218a10.17,10.17,0,0,1,7.7,3.81A14.26,14.26,0,0,1,249,13v92.42C249,112.6,244.16,118.42,238.14,118.42Z"/><path d="M224.39,152.42c-7.94,14.25-35.31,9.5-95.71,6-60.91-3.54-83.65,9-93.39-6-7.34-11.29,2.47-19.85.39-55-2.06-34.69-12.89-41.77-7-54,9.42-19.56,45.82-19.57,98-19C176.09,25,228.8,25.52,235.56,47c4.73,15-18,24.26-19.77,55.42C214.24,130,231.08,140.42,224.39,152.42Z"/><line class="cls-3" x1="114.37" y1="79.23" x2="104.23" y2="92.74"/><line class="cls-3" x1="104.23" y1="79.23" x2="114.37" y2="92.74"/><line class="cls-3" x1="151.98" y1="79.23" x2="141.84" y2="92.74"/><line class="cls-3" x1="141.84" y1="79.23" x2="151.98" y2="92.74"/><path class="cls-4" d="M115,116.09c.67-.89,5.73-7.34,14-7.17,7.93.16,12.67,6.22,13.39,7.17"/></g></g></svg>